<svg width="12" height="15" viewBox="0 0 12 15" fill="none" xmlns="http://www.w3.org/2000/svg">
<path d="M11.3333 14.6667H0.666664V13.3333C0.666664 12.4493 1.01785 11.6014 1.64297 10.9763C2.2681 10.3512 3.11594 9.99999 4 9.99999H8C8.88405 9.99999 9.7319 10.3512 10.357 10.9763C10.9821 11.6014 11.3333 12.4493 11.3333 13.3333V14.6667ZM6 8.66666C5.47471 8.66666 4.95457 8.56319 4.46926 8.36217C3.98396 8.16116 3.543 7.86652 3.17157 7.49508C2.80014 7.12365 2.5055 6.68269 2.30448 6.19739C2.10346 5.71209 2 5.19194 2 4.66666C2 4.14137 2.10346 3.62123 2.30448 3.13592C2.5055 2.65062 2.80014 2.20966 3.17157 1.83823C3.543 1.4668 3.98396 1.17216 4.46926 0.971138C4.95457 0.77012 5.47471 0.666656 6 0.666656C7.06086 0.666657 8.07828 1.08808 8.82842 1.83823C9.57857 2.58837 10 3.60579 10 4.66666C10 5.72752 9.57857 6.74494 8.82842 7.49508C8.07828 8.24523 7.06086 8.66666 6 8.66666V8.66666Z" fill="#6B7280"/>
</svg>
