<svg width="40" height="40" viewBox="0 0 40 40" fill="none" xmlns="http://www.w3.org/2000/svg">
<rect width="40" height="40" rx="8" fill="#F3F4F6"/>
<path d="M15.7766 27.2531C15.7766 27.3469 15.6687 27.4219 15.5328 27.4219C15.3781 27.4359 15.2703 27.3609 15.2703 27.2531C15.2703 27.1594 15.3781 27.0844 15.5141 27.0844C15.6547 27.0703 15.7766 27.1453 15.7766 27.2531ZM14.3188 27.0422C14.2859 27.1359 14.3797 27.2437 14.5203 27.2719C14.6422 27.3187 14.7828 27.2719 14.8109 27.1781C14.8391 27.0844 14.75 26.9766 14.6094 26.9344C14.4875 26.9016 14.3516 26.9484 14.3188 27.0422ZM16.3906 26.9625C16.2547 26.9953 16.1609 27.0844 16.175 27.1922C16.1891 27.2859 16.3109 27.3469 16.4516 27.3141C16.5875 27.2812 16.6812 27.1922 16.6672 27.0984C16.6531 27.0094 16.5266 26.9484 16.3906 26.9625ZM19.475 9C12.9734 9 8 13.9359 8 20.4375C8 25.6359 11.2719 30.0844 15.9453 31.65C16.5453 31.7578 16.7563 31.3875 16.7563 31.0828C16.7563 30.7922 16.7422 29.1891 16.7422 28.2047C16.7422 28.2047 13.4609 28.9078 12.7719 26.8078C12.7719 26.8078 12.2375 25.4437 11.4688 25.0922C11.4688 25.0922 10.3953 24.3562 11.5437 24.3703C11.5437 24.3703 12.7109 24.4641 13.3531 25.5797C14.3797 27.3891 16.1 26.8687 16.7703 26.5594C16.8781 25.8094 17.1828 25.2891 17.5203 24.9797C14.9 24.6891 12.2563 24.3094 12.2563 19.8C12.2563 18.5109 12.6125 17.8641 13.3625 17.0391C13.2406 16.7344 12.8422 15.4781 13.4844 13.8562C14.4641 13.5516 16.7188 15.1219 16.7188 15.1219C17.6562 14.8594 18.6641 14.7234 19.6625 14.7234C20.6609 14.7234 21.6688 14.8594 22.6063 15.1219C22.6063 15.1219 24.8609 13.5469 25.8406 13.8562C26.4828 15.4828 26.0844 16.7344 25.9625 17.0391C26.7125 17.8687 27.1719 18.5156 27.1719 19.8C27.1719 24.3234 24.4109 24.6844 21.7906 24.9797C22.2219 25.35 22.5875 26.0531 22.5875 27.1547C22.5875 28.7344 22.5734 30.6891 22.5734 31.0734C22.5734 31.3781 22.7891 31.7484 23.3844 31.6406C28.0719 30.0844 31.25 25.6359 31.25 20.4375C31.25 13.9359 25.9766 9 19.475 9ZM12.5562 25.1672C12.4953 25.2141 12.5094 25.3219 12.5891 25.4109C12.6641 25.4859 12.7719 25.5188 12.8328 25.4578C12.8937 25.4109 12.8797 25.3031 12.8 25.2141C12.725 25.1391 12.6172 25.1062 12.5562 25.1672ZM12.05 24.7875C12.0172 24.8484 12.0641 24.9234 12.1578 24.9703C12.2328 25.0172 12.3266 25.0031 12.3594 24.9375C12.3922 24.8766 12.3453 24.8016 12.2516 24.7547C12.1578 24.7266 12.0828 24.7406 12.05 24.7875ZM13.5688 26.4562C13.4938 26.5172 13.5219 26.6578 13.6297 26.7469C13.7375 26.8547 13.8734 26.8687 13.9344 26.7938C13.9953 26.7328 13.9672 26.5922 13.8734 26.5031C13.7703 26.3953 13.6297 26.3813 13.5688 26.4562ZM13.0344 25.7672C12.9594 25.8141 12.9594 25.9359 13.0344 26.0438C13.1094 26.1516 13.2359 26.1984 13.2969 26.1516C13.3719 26.0906 13.3719 25.9688 13.2969 25.8609C13.2312 25.7531 13.1094 25.7063 13.0344 25.7672Z" fill="black"/>
</svg>
