<svg width="40" height="40" viewBox="0 0 40 40" fill="none" xmlns="http://www.w3.org/2000/svg">
<rect width="40" height="40" rx="8" fill="#F3F4F6"/>
<path d="M10.7711 20.2181C10.896 19.8272 11.0446 19.0303 11.3909 18.33C13.0765 14.9286 15.6838 12.4547 19.1657 10.9518C19.8376 10.6622 20.6373 10.5695 21.3793 10.5657C22.3068 10.561 22.9286 11.2064 23.0099 12.1424C23.0525 12.6298 23.0469 13.1712 22.8793 13.6198C21.2298 18.0319 18.117 20.9866 13.7409 22.6466C13.5705 22.7109 13.3803 22.7279 13.1967 22.7526C11.707 22.957 10.7483 22.1128 10.7711 20.2181ZM22.2235 16.9483C24.6425 16.7789 27.0208 16.6123 29.5127 16.4372C29.331 16.264 29.2288 16.1504 29.1105 16.0558C26.9413 14.3163 24.7665 12.5844 22.6058 10.8345C22.3919 10.6613 22.2594 10.3887 21.9736 10.0102C22.9021 10.0102 23.6526 10.0017 24.4031 10.0121C25.3088 10.0253 26.2362 9.9373 27.1164 10.1001C29.0196 10.4521 30.0351 11.6796 29.9991 13.6141C29.966 15.4274 29.7786 17.2379 29.6442 19.0483C29.4389 21.8203 29.2231 24.5924 29.0092 27.3634C28.9723 27.8414 28.9278 28.3193 28.8795 28.8871C27.8735 27.9909 26.911 27.1344 25.9504 26.277C25.8264 26.1662 25.7233 26.0233 25.5861 25.9353C24.4116 25.1876 23.9213 24.0728 23.6544 22.7402C23.3062 20.9989 22.7961 19.2897 22.3569 17.5663C22.3077 17.3732 22.2718 17.1763 22.2225 16.9464L22.2235 16.9483ZM13.1532 27.5499C13.6708 27.4779 14.1554 27.4477 14.6172 27.3284C14.7989 27.282 15.01 27.0606 15.0687 26.8751C15.504 25.4981 15.9034 24.1087 16.3151 22.7251C16.351 22.604 16.4012 22.4866 16.4675 22.3059C18.9868 23.1122 21.4862 23.9128 24.0595 24.7362C22.7203 26.0877 21.296 27.2205 19.7042 28.2389C22.5405 28.4556 25.3769 28.6723 28.2133 28.889C28.2133 28.925 28.2133 28.9619 28.2142 28.9979C27.6028 29.0414 26.9915 29.0868 26.3801 29.1275C22.7724 29.3651 19.1657 29.6017 15.558 29.8373C14.9844 29.8752 14.41 29.9376 13.8374 29.9272C11.4089 29.8828 10.0329 28.5521 10.0016 26.1161C9.98365 24.7476 10.1247 23.3772 10.2117 22.0087C10.2184 21.9055 10.366 21.8109 10.4483 21.7125C10.5704 21.8213 10.7483 21.9065 10.808 22.0428C11.5329 23.7236 12.2408 25.4119 12.9535 27.0975C13.0112 27.2328 13.0727 27.3663 13.1532 27.5499Z" fill="#EB5757"/>
</svg>
