<svg width="18" height="21" viewBox="0 0 18 21" fill="none" xmlns="http://www.w3.org/2000/svg">
<path d="M9 0C11.2543 0 13.4163 0.895533 15.0104 2.48959C16.6045 4.08365 17.5 6.24566 17.5 8.5C17.5 15 12 20.5 9 20.5C6 20.5 0.5 15 0.5 8.5C0.5 6.24566 1.39553 4.08365 2.98959 2.48959C4.58365 0.895533 6.74566 0 9 0ZM9 2C7.27609 2 5.62279 2.68482 4.40381 3.90381C3.18482 5.12279 2.5 6.77609 2.5 8.5C2.5 13.294 6.665 18.5 9 18.5C11.335 18.5 15.5 13.294 15.5 8.5C15.5 6.77609 14.8152 5.12279 13.5962 3.90381C12.3772 2.68482 10.7239 2 9 2ZM14.5 9C14.66 9 14.819 9.008 14.975 9.025C15.0459 9.69242 14.9665 10.3672 14.7428 11C14.5191 11.6328 14.1567 12.2075 13.6821 12.6821C13.2075 13.1567 12.6328 13.5191 12 13.7428C11.3672 13.9665 10.6924 14.0459 10.025 13.975C9.95839 13.3475 10.0245 12.713 10.219 12.1127C10.4136 11.5124 10.7322 10.9597 11.1542 10.4906C11.5762 10.0214 12.0922 9.64627 12.6686 9.38948C13.245 9.13268 13.869 8.99998 14.5 9ZM3.5 9C4.13103 8.99998 4.75501 9.13268 5.33142 9.38948C5.90783 9.64627 6.42379 10.0214 6.8458 10.4906C7.26781 10.9597 7.58642 11.5124 7.78096 12.1127C7.9755 12.713 8.04161 13.3475 7.975 13.975C7.30758 14.0459 6.63277 13.9665 5.99998 13.7428C5.36719 13.5191 4.79245 13.1567 4.31786 12.6821C3.84328 12.2075 3.48086 11.6328 3.25716 11C3.03345 10.3672 2.95413 9.69242 3.025 9.025C3.18 9.008 3.34 9 3.5 9Z" fill="#111827"/>
</svg>
